<?xml version="1.0" standalone="no"?>
<!DOCTYPE svg PUBLIC "-//W3C//DTD SVG 20010904//EN"
 "http://www.w3.org/TR/2001/REC-SVG-20010904/DTD/svg10.dtd">
<svg version="1.0" xmlns="http://www.w3.org/2000/svg"
 width="300.000000pt" height="300.000000pt" viewBox="0 0 300.000000 300.000000"
 preserveAspectRatio="xMidYMid meet">
<metadata>
Created by potrace 1.11, written by Peter Selinger 2001-2013
</metadata>
<g transform="translate(0.000000,300.000000) scale(0.100000,-0.100000)"
fill="#000000" stroke="none">
<path d="M205 2982 c-99 -34 -174 -117 -195 -215 -8 -37 -10 -413 -8 -1297 l3
-1245 21 -46 c28 -60 93 -125 153 -153 l46 -21 1275 0 1275 0 46 21 c60 28
125 93 153 153 l21 46 0 1275 0 1275 -21 46 c-28 60 -93 125 -153 153 l-46 21
-1260 2 c-1175 2 -1263 1 -1310 -15z m875 -772 l0 -170 95 0 95 0 0 -60 0 -60
-95 0 -95 0 0 -101 0 -100 31 22 c17 12 34 18 38 13 18 -20 151 -212 151 -217
0 -3 -21 -22 -46 -42 l-47 -35 -63 97 -64 98 0 -472 0 -473 -65 0 -65 0 0 428
-1 427 -39 -103 c-65 -172 -144 -323 -159 -306 -5 5 -18 39 -31 75 l-22 65 44
80 c77 136 164 358 197 503 l9 41 -109 0 -109 0 0 60 0 60 110 0 110 0 0 170
0 170 65 0 65 0 0 -170z m1100 -117 c1 -306 18 -920 30 -1021 11 -103 17 -122
35 -122 19 0 24 19 36 148 6 64 12 117 13 118 0 1 25 -10 54 -23 50 -23 52
-26 52 -63 0 -48 -17 -178 -32 -245 -14 -65 -43 -122 -69 -136 -58 -30 -142
29 -179 127 -44 120 -52 216 -57 767 l-5 517 -303 0 -303 0 -5 -437 c-4 -386
-7 -451 -25 -548 -31 -166 -105 -359 -170 -443 l-18 -24 -48 56 -48 56 38 57
c48 73 87 173 115 298 21 95 22 128 26 608 l4 507 430 0 429 0 0 -197z m-215
-92 c29 -12 49 -25 47 -33 -8 -40 -92 -280 -132 -382 l-48 -119 35 -76 c70
-151 193 -434 191 -436 -19 -17 -112 -54 -118 -48 -4 4 -45 96 -90 203 -45
107 -84 197 -85 198 -2 2 -15 -19 -29 -46 -37 -72 -131 -235 -183 -315 l-44
-69 -47 38 c-26 21 -49 39 -52 41 -2 2 1 12 7 21 103 161 149 240 209 356 l71
138 -67 147 c-37 80 -86 186 -109 234 -22 49 -41 92 -41 96 0 4 21 17 47 30
43 21 48 21 59 7 6 -9 47 -93 90 -186 44 -93 81 -170 85 -170 6 0 61 147 109
293 17 53 35 97 38 97 4 0 30 -9 57 -19z"/>
</g>
</svg>
