<?xml version="1.0" standalone="no"?>
<!DOCTYPE svg PUBLIC "-//W3C//DTD SVG 20010904//EN"
 "http://www.w3.org/TR/2001/REC-SVG-20010904/DTD/svg10.dtd">
<svg version="1.0" xmlns="http://www.w3.org/2000/svg"
 width="1024.000000pt" height="1024.000000pt" viewBox="0 0 1024.000000 1024.000000"
 preserveAspectRatio="xMidYMid meet">
<metadata>
Created by potrace 1.14, written by Peter Selinger 2001-2017
</metadata>
<g transform="translate(0.000000,1024.000000) scale(0.100000,-0.100000)"
fill="#000000" stroke="none">
<path d="M4858 10175 c-1 -1 -49 -6 -105 -9 -56 -3 -117 -8 -135 -10 -18 -3
-58 -8 -88 -11 -156 -16 -406 -60 -560 -97 -47 -11 -89 -21 -95 -22 -259 -59
-701 -223 -1003 -375 -137 -68 -229 -117 -282 -151 -8 -5 -40 -23 -70 -41 -52
-30 -338 -220 -370 -246 -8 -6 -61 -47 -116 -90 -99 -76 -118 -91 -239 -195
-107 -92 -418 -410 -516 -528 -430 -517 -729 -1048 -933 -1660 -61 -182 -134
-459 -160 -605 -3 -16 -8 -41 -11 -55 -11 -58 -15 -77 -20 -115 -3 -22 -10
-67 -15 -100 -5 -33 -12 -89 -16 -125 -4 -36 -8 -76 -10 -90 -20 -149 -26
-690 -10 -890 4 -58 9 -107 11 -110 1 -3 6 -36 9 -75 4 -38 9 -81 11 -95 2
-14 7 -43 9 -65 9 -66 43 -254 65 -350 179 -819 594 -1630 1156 -2255 78 -88
351 -358 435 -431 47 -41 87 -77 90 -80 22 -25 286 -221 415 -308 358 -242
733 -432 1130 -573 102 -36 393 -125 437 -133 11 -2 28 -7 38 -10 18 -6 43
-12 90 -21 297 -60 370 -72 526 -89 28 -3 59 -7 70 -9 139 -27 768 -28 1019
-1 107 11 153 16 171 20 12 3 47 7 77 10 45 5 402 75 457 90 8 2 67 18 130 35
194 52 436 137 655 230 98 42 354 167 428 209 20 11 54 30 75 42 260 146 580
375 822 588 87 76 363 350 435 431 148 167 310 377 425 550 45 69 90 136 100
150 9 14 27 43 39 65 12 22 37 67 57 100 172 297 380 790 458 1085 8 30 24 91
36 134 11 43 28 111 36 150 9 39 17 78 19 86 14 65 45 235 50 280 3 30 8 66
10 80 8 50 14 107 21 175 4 39 9 84 11 100 8 57 10 670 3 735 -4 36 -11 101
-14 145 -6 68 -12 115 -31 250 -1 11 -6 43 -10 70 -3 28 -10 66 -15 85 -5 19
-11 51 -14 71 -19 126 -98 427 -161 614 -65 194 -80 233 -145 386 -200 467
-448 869 -789 1279 -100 120 -406 433 -526 537 -321 278 -686 524 -1057 709
-137 69 -400 186 -458 204 -14 5 -70 25 -125 45 -175 63 -498 154 -639 179
-16 3 -52 10 -80 15 -60 12 -98 19 -146 27 -19 3 -46 7 -59 9 -29 5 -263 32
-351 41 -68 6 -646 15 -652 9z"/>
</g>
</svg>
