<?xml version="1.0" standalone="no"?>
<!DOCTYPE svg PUBLIC "-//W3C//DTD SVG 20010904//EN"
 "http://www.w3.org/TR/2001/REC-SVG-20010904/DTD/svg10.dtd">
<svg version="1.0" xmlns="http://www.w3.org/2000/svg"
 width="300.000000pt" height="300.000000pt" viewBox="0 0 300.000000 300.000000"
 preserveAspectRatio="xMidYMid meet">
<metadata>
Created by potrace 1.11, written by Peter Selinger 2001-2013
</metadata>
<g transform="translate(0.000000,300.000000) scale(0.100000,-0.100000)"
fill="#000000" stroke="none">
<path d="M827 2984 c-208 -37 -383 -129 -532 -279 -129 -129 -214 -275 -264
-454 l-26 -96 0 -655 0 -655 26 -96 c50 -179 135 -325 264 -454 152 -153 325
-242 540 -280 129 -22 1201 -22 1330 0 215 38 388 127 540 280 129 129 214
275 264 454 l26 96 0 655 0 655 -26 96 c-50 179 -135 325 -264 454 -152 153
-325 242 -540 280 -123 21 -1219 21 -1338 -1z m41 -351 l106 -56 -37 -31 -37
-31 0 -227 0 -228 42 0 c38 0 48 6 98 55 l56 55 84 -85 85 -85 -183 0 -183 0
3 -121 3 -122 79 -49 c221 -137 274 -222 215 -345 -18 -38 -25 -44 -48 -41
-22 3 -34 19 -86 123 -50 101 -146 245 -162 245 -3 0 -4 -268 -2 -596 l4 -597
-75 -28 c-41 -16 -75 -29 -75 -29 0 0 1 251 2 557 2 430 0 552 -9 533 -112
-241 -230 -441 -321 -545 -28 -32 -38 -38 -48 -28 -11 11 -1 35 48 130 140
269 248 577 308 881 l7 32 -114 0 c-62 0 -127 -4 -145 -9 -28 -8 -34 -5 -69
30 l-38 39 193 0 193 0 -3 315 c-2 173 -2 315 0 315 2 0 51 -25 109 -57z
m1407 -156 l59 -54 -41 -27 -41 -27 -7 -177 c-11 -253 0 -809 19 -972 20 -166
37 -234 80 -325 38 -79 101 -171 109 -158 2 4 20 77 38 160 32 142 36 153 56
153 22 0 23 -1 15 -93 -11 -144 -8 -315 7 -400 22 -121 1 -123 -131 -13 -153
128 -235 281 -277 512 -40 221 -46 340 -46 847 l1 487 -348 0 -347 0 -4 -537
c-3 -501 -5 -544 -25 -631 -61 -270 -170 -488 -347 -695 -63 -73 -68 -77 -85
-62 -17 15 -15 20 34 86 110 145 190 316 239 504 52 201 52 209 52 862 0 337
1 613 2 613 1 0 32 -18 71 -40 l69 -40 336 0 336 0 42 49 c49 57 45 58 134
-22z m-273 -324 c48 -32 88 -60 87 -63 0 -3 -16 -16 -35 -30 -31 -22 -45 -49
-128 -259 l-94 -234 70 -106 c38 -58 90 -148 116 -200 41 -83 47 -102 46 -156
-1 -79 -36 -150 -74 -150 -23 0 -28 10 -67 130 -47 145 -132 355 -143 355 -4
0 -19 -24 -35 -52 -63 -118 -134 -229 -217 -338 -135 -178 -143 -186 -161
-171 -14 11 -7 25 53 116 83 126 153 255 237 434 l63 135 -59 110 c-32 61 -91
165 -130 231 -66 110 -80 153 -48 143 14 -5 87 -99 197 -257 45 -64 82 -107
84 -100 51 153 109 360 127 457 6 34 14 62 17 62 3 0 45 -26 94 -57z"/>
</g>
</svg>
